
<svg xmlns="http://www.w3.org/2000/svg" viewBox="0 0 175.59 180.22">
    <path
        d="M1 76.79H.5v.51L.63 102v.49h.49l120.71.63a3.51 3.51 0 013.22 2.31 3.18 3.18 0 01-.68 3.85L72.73 161l-.36.35.36.35 17.41 17.41.35.36.35-.36L172 98a10.48 10.48 0 000-14.93l-82-82-.43-.39-.36.32L72 18.26l-.35.36.35.38 52.21 52.2a3.2 3.2 0 01.74 3.85v.05a3.4 3.4 0 01-3.18 2.27z"
        fill="currentColor" />
    <path
        d="M172.31 82.74l-82-82-.74-.74-18.65 18.64 52.94 52.94a2.71 2.71 0 01.63 3.29l-.06.16a2.89 2.89 0 01-2.69 1.91L0 76.31.14 103l121.7.64a3 3 0 012.76 2l.08.15a2.68 2.68 0 01-.62 3.23L71.67 161.4l18.82 18.82 81.89-81.89a10.82 10.82 0 003.21-7.78 11.06 11.06 0 00-3.28-7.81zm-.63 14.88l-81.19 81.19-17.41-17.41 51.69-51.69a3.67 3.67 0 00.76-4.46 4 4 0 00-3.68-2.64L1.14 102 1 77.31l120.71.63a3.91 3.91 0 003.64-2.6 3.72 3.72 0 00-.81-4.47l-52.2-52.23L89.57 1.41l82 82a10 10 0 013 7.1 9.83 9.83 0 01-2.89 7.11z"
        fill="#ff4545" /></svg>