
<svg xmlns="http://www.w3.org/2000/svg" viewBox="0 0 122.65 53.46">
    <defs>
        <style>
            .cls-1 {
                fill: currentColor;
                fill-rule: evenodd
            }
        </style>
    </defs>
    <path class="cls-1"
        d="M10.09 0A10 10 0 110 10 10.06 10.06 0 0110.09 0zM6.61 5.13v1.94h4.86v1.61H9.3c-2.18 0-3.52 1.31-3.52 3.15S7.12 15 9.3 15h4.46V5.13zM11.47 13v-2.38h-2c-.86 0-1.38.47-1.38 1.21S8.6 13 9.46 13zM10.09 2.09a7.93 7.93 0 108 7.93 8 8 0 00-8-7.93zM60.71 45.74h1.78v4.43h.06l3.1-4.43h1.6v7.62h-1.78v-4.45l-3.14 4.45h-1.62zM70.38 41.44v-7.63h1.78v3.06h3.18v-3.06h1.77v7.63h-1.77v-3.07h-3.18v3.07zM53.11 33.81h-2.3l-2.19 5h-.09l-2.2-5H44v7.63h1.78v-4.68h.06l2 4.68h1.48l2-4.68h.07v4.68h1.77zM88.74 21.9v1.49h-3.4v6.13h-1.85V21.9zM57.62 30.94v-2.86h.61c.83-.57.92-2.25.92-3.16v-3H65v6.18h1v2.86h-1.78v-1.44h-4.83v1.42zm2.73-2.86h2.88v-4.69h-2.3v1.53a6.73 6.73 0 01-.58 3.16zM67.35 16.13h1V19h-1.78v-1.43h-5.89V10h1.78v6.12h3.12V10h1.77zM30 53.36h-1.73v-7.62h3.53a2.56 2.56 0 110 5.11H30zm0-6.12v2.11h1.64a1.06 1.06 0 100-2.11zM51.29 48.5h-1.8a1.83 1.83 0 00-1.7-1.34c-1.32 0-2 1.07-2 2.39s.68 2.38 2 2.38a1.83 1.83 0 001.7-1.34h1.8a3.29 3.29 0 01-3.53 2.87A3.64 3.64 0 0144 49.55a3.64 3.64 0 013.74-3.92 3.3 3.3 0 013.55 2.87zM59.49 48.5H57.7a1.83 1.83 0 00-1.7-1.34c-1.31 0-2 1.07-2 2.39s.68 2.38 2 2.38a1.83 1.83 0 001.71-1.34h1.79a3.3 3.3 0 01-3.5 2.87 3.64 3.64 0 01-3.73-3.91A3.64 3.64 0 0156 45.63a3.3 3.3 0 013.49 2.87zM68.87 45.74h1.78v4.43l3.11-4.43h1.6v7.62h-1.73v-4.45l-3.13 4.45h-1.63zM39 33.71a3.92 3.92 0 103.89 3.91A3.77 3.77 0 0039 33.71zm-2.12 3.91a2.13 2.13 0 114.24 0 2.14 2.14 0 11-4.24 0z" />
    <path class="cls-1"
        d="M30 33.81h-1.73v7.63H30v-3.07h1l2 3.07h2l-2.53-3.82L35 33.81h-2l-2 3.06h-1zM61.39 33.81v7.63h-1.77v-6.13h-3.13v6.13h-1.77v-7.63zM63.15 33.81h5.61v7.63h-3.45a2.45 2.45 0 110-4.87H67v-1.26h-3.85zM67 39.94v-1.88h-1.57a.94.94 0 00-1.06.94.93.93 0 001.06.94zM78.73 33.81h1.77v4.44h.07l3.1-4.44h1.59v7.63h-1.77V37l-3.19 4.44h-1.57zM86.88 33.81h1.77v4.44h.07l3.1-4.44h1.6v7.63h-1.78V37l-3.14 4.44h-1.62zM33.88 21.9h-5.61v7.62h3.45a2.45 2.45 0 100-4.88H30v-1.25h3.84zM30 28v-1.86h1.6a.95.95 0 110 1.88zM37.44 29.52h-1.78V21.9h3.53a2.56 2.56 0 110 5.11h-1.75zm0-6.13v2.12h1.63a1.06 1.06 0 100-2.12zM42.93 29.52V21.9h5.61v1.49h-3.82V25h3.54v1.5h-3.54V28h3.82v1.5zM49.88 29.52V21.9h1.78V25h3.19v-3.1h1.77v7.62h-1.77v-3.06h-3.19v3.06zM67 21.9h1.77v4.43h.07l3.09-4.43h1.6v7.62h-1.79v-4.44l-3.14 4.44H67zM75.14 29.52V21.9h1.77V25h3.18v-3.1h1.78v7.62h-1.78v-3.06h-3.18v3.06zM97.88 21.9h3.43c1.81 0 2.48.9 2.48 2a1.84 1.84 0 01-.89 1.69 1.84 1.84 0 011.19 1.85c0 1.12-.67 2.06-2.48 2.06h-3.73zm1.78 1.42V25H101c.75 0 1-.43 1-.83s-.25-.82-1-.82zm0 3.08v1.69h1.66c.75 0 1-.44 1-.85s-.25-.84-1-.84zM107 21.9h-1.77v7.62h3.52a2.57 2.57 0 100-5.12H107zm0 6.1v-2.1h1.64a1.06 1.06 0 110 2.12zM112.36 29.52h1.78V21.9h-1.78zM115.37 21.9h1.9l1.7 2.78h.03l1.71-2.78h1.9l-2.33 3.81 2.33 3.81h-1.9L119 26.74l-1.7 2.78h-1.9l2.34-3.81zM28.67 10h5.61v7.62h-3.45a2.45 2.45 0 110-4.88h1.68v-1.3h-3.84zm3.84 6.12v-1.93H31a.95.95 0 100 1.88zM42.68 12.71h-1.79a1.83 1.83 0 00-1.7-1.34c-1.32 0-2 1.07-2 2.39s.68 2.38 2 2.38a1.83 1.83 0 001.7-1.34h1.79a3.28 3.28 0 01-3.52 2.86 3.63 3.63 0 01-3.74-3.9 3.64 3.64 0 013.74-3.92 3.29 3.29 0 013.52 2.87zM50.9 12.71h-1.79a1.83 1.83 0 00-1.71-1.34c-1.31 0-2 1.07-2 2.39s.68 2.38 2 2.38a1.83 1.83 0 001.71-1.34h1.79a3.29 3.29 0 01-3.53 2.86 3.63 3.63 0 01-3.73-3.9 3.64 3.64 0 013.73-3.92 3.3 3.3 0 013.53 2.87zM69.29 10h1.77v4.43h.07l3.1-4.43h1.6v7.62h-1.78v-4.5l-3.14 4.45h-1.62zM77.69 10h5.61v7.62h-3.44a2.46 2.46 0 110-4.88h1.67v-1.3h-3.84zm3.84 6.12v-1.93H80c-.67 0-1.08.37-1.08.94s.41.94 1.08.94zM91.59 16.13h1V19H90.8v-1.43h-5.89V10h1.77v6.12h3.13V10h1.78zM93.52 10h1.78v4.43h.06l3.1-4.43h1.59v7.62h-1.77v-4.5l-3.18 4.45h-1.58zM105.72 17.57h1.78V10h-3.45a2.46 2.46 0 00-2.73 2.46 2.34 2.34 0 001.73 2.33l-1.89 2.83h2l1.78-2.69h.79zm0-6.2v2.08h-1.55a1 1 0 110-2.08zM91 31.77h1.2c0 1.1-1 1.56-2 1.56s-2-.46-2-1.56h1.19c0 .45.35.65.76.65s.85-.2.85-.65zM39.18 45.63a3.92 3.92 0 103.89 3.92 3.77 3.77 0 00-3.89-3.92zm-2.11 3.92a2.13 2.13 0 114.23 0 2.13 2.13 0 11-4.23 0zM92.82 21.79a3.77 3.77 0 00-3.89 3.92 3.89 3.89 0 107.78 0 3.77 3.77 0 00-3.89-3.92zm-2.12 3.92a2.14 2.14 0 114.24 0 2.13 2.13 0 11-4.24 0zM55.65 9.84a3.77 3.77 0 00-3.89 3.92 3.89 3.89 0 107.78 0 3.77 3.77 0 00-3.89-3.92zm-2.11 3.92a2.13 2.13 0 114.22 0 2.13 2.13 0 11-4.22 0z" />
</svg>