
<svg xmlns="http://www.w3.org/2000/svg" viewBox="0 0 210 38">
    <defs>
        <clipPath id="clip-path">
            <path fill="none" d="M0 0h210v38H0z" />
        </clipPath>
        <style>
            .cls-3 {
                fill: currentColor;
            }
        </style>
    </defs>
    <g clip-path="url(#clip-path)">
        <path class="cls-3"
            d="M78.16 23.22a11.9 11.9 0 01-10.08 5c-6.84 0-12.38-4.67-12.38-11.66S61 5 67.83 5c4 0 7.49 1.14 9.88 4.56l-3.39 2.29C72.72 9.57 70.47 9 67.83 9c-4.6 0-8 2.88-8 7.54s3.74 7.59 8.29 7.59a7.61 7.61 0 006.69-3.27zM89.89 5c7 0 11.69 4.71 11.69 11.61s-4.7 11.66-11.69 11.66-11.68-4.81-11.68-11.7S83 5 89.89 5zm0 4.07C85.2 9 82.36 12 82.36 16.57s2.84 7.59 7.53 7.59 7.59-2.93 7.59-7.59S94.59 9 89.89 9zM123.2 27.58V8.73a.53.53 0 00-.4-.45.44.44 0 00-.5.3l-4 10.37h-5.8l-3.93-10.32a.46.46 0 00-.9.15v18.8h-4.09v-22h8.24l3.59 9.42 3.65-9.42h8.23v22zM131.19 27.58v-22h11.18a7.51 7.51 0 015.29 2.18 7.49 7.49 0 01-5.29 12.75h-6.14a.93.93 0 00-.95.89v6.15zm4.09-17v5a.94.94 0 00.95.89h6.14a3.23 3.23 0 002.4-1 3.18 3.18 0 001-2.38 3.33 3.33 0 00-1-2.38 3.2 3.2 0 00-2.4-1h-6.14a.94.94 0 00-.95.86zM166.54 27.58L165 22.77a.91.91 0 00-.9-.64h-8.59a.85.85 0 00-.85.64l-1.5 4.81h-4.29l6.89-22h8.14l6.89 22zm-3.15-10.12l-3.1-9.77a.48.48 0 00-.45-.35.52.52 0 00-.44.35l-3.05 9.77a.53.53 0 00.05.4.45.45 0 00.4.2h6.14a.38.38 0 00.35-.2.54.54 0 00.1-.4zM186.11 11.31c-1.35-2-3.9-2.28-6.19-2.28-1.8 0-4.45.49-4.45 2.78s2.75 2.33 5.5 2.73c4.44.59 8.93 1.09 8.93 6.74 0 4.86-4.94 7-9.18 7s-7-.95-9.54-4.32l3.3-2.43c1.69 2.33 3.44 2.73 6.24 2.68 1.74 0 5.09-.6 5.09-2.88s-2.7-2.38-5.39-2.73c-4.55-.59-9-1-9-6.74C171.38 7 175.67 5 179.92 5c3.79 0 7.39.79 9.58 4.17zM205.63 11.31c-1.3-1.93-4-2.28-6.19-2.28-1.8 0-4.44.49-4.44 2.78s2.74 2.33 5.49 2.73c4.49.59 8.94 1.09 8.94 6.74 0 4.86-5 7-9.19 7-3.89 0-7.14-1.09-9.54-4.32l3.3-2.43c1.6 2.13 3.64 2.73 6.24 2.68 1.8 0 5.09-.6 5.09-2.88s-2.69-2.38-5.39-2.73c-4.49-.59-9-1-9-6.74C190.9 7 195.2 5 199.44 5c3.65 0 7.54.94 9.59 4.17zM20.17 15.63L31.66 4.22a.53.53 0 00.1-.6.5.5 0 00-.5-.35h-9.89V0H36.9a1.34 1.34 0 011.35 1.34v15.43H35V7a.5.5 0 00-.35-.5.53.53 0 00-.6.1L22.52 18zM0 15.63L11.48 4.22a.53.53 0 00.1-.6.6.6 0 00-.5-.35H1.15V0h15.53a1.38 1.38 0 011.39 1.34v15.43h-3.34V7a.45.45 0 00-.35-.5.55.55 0 00-.6.1L2.35 18 0 15.63zM20.17 35.67l11.49-11.36a.55.55 0 00.1-.6c-.05-.25-.25-.34-.5-.34h-9.89V20H36.9a1.39 1.39 0 011.35 1.39v15.47H35V27a.6.6 0 00-.35-.5.48.48 0 00-.6.15L22.52 38zM0 35.67l11.48-11.36a.55.55 0 00.1-.6.51.51 0 00-.5-.34H1.15V20h15.53a1.43 1.43 0 011.39 1.39v15.47h-3.34V27a.52.52 0 00-.35-.5.49.49 0 00-.6.15L2.35 38 0 35.67z" />
    </g>
</svg>