<svg id="Layer_1" data-name="Layer 1" xmlns="http://www.w3.org/2000/svg" viewBox="0 0 918 910"><defs><style>.cls-1{fill-rule:evenodd;}</style></defs><path class="cls-1" d="M275.64,101.47,0,374.25,56.33,430,330.76,157.21c4.79-3.56,9.59-4.75,14.38-2.37,6,1.18,8.39,5.93,8.39,11.86V401.52h80.3V32.68c0-17.79-15.59-32-33.56-32H27.56V78.93H266.05c4.79,0,9.59,3.56,12,8.31A12.52,12.52,0,0,1,275.64,101.47Zm484.17,0L484.18,374.25,540.5,430,816.14,157.21a12.82,12.82,0,0,1,14.38-2.37c4.79,1.18,8.39,5.93,8.39,11.86V401.52H918V32.68a32.06,32.06,0,0,0-32.36-32H512.94V78.93H750.22c6,0,10.79,3.56,12,8.31A12.52,12.52,0,0,1,759.81,101.47ZM484.18,853.39,759.81,581.8c3.6-4.75,4.79-9.49,2.4-14.23-1.2-5.93-6-8.31-12-8.31H512.94V479.8h372.7c18,0,32.36,15.42,32.36,33.21V881.85H838.91v-236c0-4.74-3.6-9.49-8.39-11.86a11.5,11.5,0,0,0-14.38,3.56L540.5,909.13ZM275.64,581.8,0,853.39l56.33,55.74L330.76,637.54q7.19-7.12,14.38-3.56c6,2.37,8.39,7.12,8.39,11.86v236h80.3V513c0-17.79-15.59-33.21-33.56-33.21H27.56v79.46H266.05a12.48,12.48,0,0,1,12,8.31C280.43,572.31,279.23,577.05,275.64,581.8Z"/></svg>