<svg id="Layer_1" data-name="Layer 1" xmlns="http://www.w3.org/2000/svg" viewBox="0 0 79.92 19.28"><defs><style>.cls-1{fill:#f9cc46;fill-rule:evenodd;}.cls-2{fill:#fff;}</style></defs><path class="cls-1" d="M42.55,13.14a25.72,25.72,0,0,0-5.48,1.3c-.55.23-1.13.37-1.69.6-1.13.42-2.19.79-3.31,1.22-.38.13-3.05.92-3.51,1-2.27.55-5.66,1.21-7.82.23-1-.51-1.13,1.07,1.21,1.63A9.56,9.56,0,0,0,26.07,19c1.13-.24,2.49-.65,3.56-1s2.35-.7,3.51-1a8.24,8.24,0,0,1,.84-.29l1.73-.51c.33-.09.57-.23.85-.33l1.79-.42c.33-.09.57-.18.85-.28a34.2,34.2,0,0,1,7.21-.74,16.88,16.88,0,0,1,2.1.24c1.14.13.89-.46.14-.85A12,12,0,0,0,42.55,13.14Z"/><path class="cls-2" d="M10.24,2.42l.21,8.25c0,.26-.08.42-.23.48a1.82,1.82,0,0,1-.56,0c-.38,0-.61,0-.7-.13a.27.27,0,0,1-.08-.19l0-.11v-.19l-.2-6.82-3,5q-.21.39-.42.39t-.45-.39l-3-5-.23,6.82a.71.71,0,0,1,0,.14v.16a.26.26,0,0,1-.07.19c-.08.09-.32.13-.72.13S.1,11.13,0,11a1.42,1.42,0,0,1,0-.31v-.06L.22,2.14A4.9,4.9,0,0,0,.13,1,1.36,1.36,0,0,1,.08.8C.08.54.35.42.88.42a1.36,1.36,0,0,1,.45.06A.77.77,0,0,1,1.62.8L5.26,6.88,8.94.8A1,1,0,0,1,9.1.58.73.73,0,0,1,9.63.42c.49,0,.74.12.74.36a1.13,1.13,0,0,1,0,.24,4.66,4.66,0,0,0-.1,1.14V2.3A1,1,0,0,1,10.24,2.42Z"/><path class="cls-2" d="M18.7,10.74c0,.06,0,.12-.14.17a1.44,1.44,0,0,1-.51.23,4.53,4.53,0,0,1-.61.16c-.21,0-.4-.2-.56-.58a3.33,3.33,0,0,1-2.18.64,3.08,3.08,0,0,1-2.12-.7,2.37,2.37,0,0,1-.8-1.86A2.35,2.35,0,0,1,12.59,7a3.09,3.09,0,0,1,2.11-.72,3.91,3.91,0,0,1,2.05.58l.07,0v-1c0-.78-.48-1.17-1.43-1.17a4,4,0,0,0-2,.56l-.2.13a1.07,1.07,0,0,1-.2.11.49.49,0,0,1-.22,0c-.14,0-.26-.12-.35-.35a1.33,1.33,0,0,1-.11-.48c0-.3.32-.57,1-.82a6.53,6.53,0,0,1,2.21-.36,3.66,3.66,0,0,1,2.08.51,1.91,1.91,0,0,1,.75,1.73V9.44a1.88,1.88,0,0,0,.21,1A.56.56,0,0,1,18.7,10.74ZM16.82,9.58V8.08a2.91,2.91,0,0,0-1.91-.69,1.52,1.52,0,0,0-1.07.4,1.27,1.27,0,0,0-.42,1,1.37,1.37,0,0,0,.45,1,1.66,1.66,0,0,0,1.15.4A3,3,0,0,0,16.82,9.58Z"/><path class="cls-2" d="M24.55,4.19a.51.51,0,0,1-.08.27c-.25.52-.49.77-.72.77a.17.17,0,0,1-.12-.06A.84.84,0,0,0,23.16,5a1.48,1.48,0,0,0-.45.1c-.71.33-1.07,1.2-1.07,2.61v2.91c0,.28-.06.46-.19.54a2,2,0,0,1-.58,0,2.57,2.57,0,0,1-.48,0,.32.32,0,0,1-.27-.34,1,1,0,0,1,0-.22V5.28a2.25,2.25,0,0,0-.1-.64A1.25,1.25,0,0,1,20,4.38c0-.2.25-.39.74-.57a6.28,6.28,0,0,1,.7-.23c.16,0,.24.26.24.77v.32a2.21,2.21,0,0,1,1.91-1.09,1.48,1.48,0,0,1,.72.18A.48.48,0,0,1,24.55,4.19Z"/><path class="cls-2" d="M32.48,10.91c0,.19-.32.29-.94.29a3.37,3.37,0,0,1-.72,0,1.28,1.28,0,0,1-.44-.32L27,7.42v3.19a.62.62,0,0,1-.19.54,2.09,2.09,0,0,1-.58,0,2.42,2.42,0,0,1-.48,0,.32.32,0,0,1-.27-.34.82.82,0,0,1,0-.22V1.82a2.84,2.84,0,0,0-.09-.72.68.68,0,0,1-.05-.25.37.37,0,0,1,.21-.34,2.84,2.84,0,0,1,.52-.27A4.37,4.37,0,0,1,26.77,0c.16,0,.24.2.24.59V6.64l3-2.7a1.26,1.26,0,0,1,.86-.24h.5c.4,0,.6,0,.6.17s-.08.2-.25.34L28.54,6.93l3.72,3.65C32.4,10.73,32.48,10.84,32.48,10.91Z"/><path class="cls-2" d="M50.09.78a3.11,3.11,0,0,1-.11.44L46.33,11.1a.41.41,0,0,1-.4.34c-.17,0-.3-.11-.4-.34L42.94,4.42,40.43,11.1c-.1.23-.23.34-.4.34a.42.42,0,0,1-.4-.34l-3.79-10a1.5,1.5,0,0,1-.08-.26c0-.27.26-.41.78-.41a2.14,2.14,0,0,1,.62,0,.58.58,0,0,1,.4.43l2.61,7.2,2.42-6.88C42.66,1,42.8.9,43,.9s.3.12.4.36L46,8.13,48.4,1.06a.87.87,0,0,1,.33-.52,1.52,1.52,0,0,1,.63-.11C49.85.43,50.09.55,50.09.78Z"/><path class="cls-2" d="M56.89,7.25c0,.24-.08.4-.23.46a1.16,1.16,0,0,1-.38,0h-5A2.33,2.33,0,0,0,52,9.44a2.54,2.54,0,0,0,1.8.62,3.62,3.62,0,0,0,.82-.09A7.26,7.26,0,0,0,56,9.38a.54.54,0,0,1,.24-.08c.15,0,.22.1.22.32a2.83,2.83,0,0,1-.12.76,1.45,1.45,0,0,1-.92.71,5.37,5.37,0,0,1-1.76.27,4,4,0,0,1-2.91-1.09,3.66,3.66,0,0,1-1.13-2.8A3.77,3.77,0,0,1,50.68,4.7a3.62,3.62,0,0,1,2.67-1.12,3.35,3.35,0,0,1,2.51,1.06A3.54,3.54,0,0,1,56.89,7.25Zm-5.54-.59h3.87a2,2,0,0,0-.56-1.28,1.71,1.71,0,0,0-1.26-.5,2,2,0,0,0-1.35.48A2.2,2.2,0,0,0,51.35,6.66Z"/><path class="cls-2" d="M65.6,7.38a3.92,3.92,0,0,1-1.09,2.92,4,4,0,0,1-3,1.06A5.51,5.51,0,0,1,59,10.75a1.38,1.38,0,0,1-.64-.54,1.92,1.92,0,0,1-.12-.82V1.82a2.84,2.84,0,0,0-.09-.72,1,1,0,0,1,0-.25.37.37,0,0,1,.21-.34,2.63,2.63,0,0,1,.53-.27,4.45,4.45,0,0,1,.7-.24c.16,0,.24.2.24.59V4.21a4.15,4.15,0,0,1,2.3-.63,3.26,3.26,0,0,1,2.53,1A3.88,3.88,0,0,1,65.6,7.38ZM63.35,9.31A2.51,2.51,0,0,0,64,7.5a2.56,2.56,0,0,0-.6-1.8A1.91,1.91,0,0,0,61.84,5a3.57,3.57,0,0,0-1.5.35c-.11.06-.28.18-.53.34V9.38a2.68,2.68,0,0,0,1.82.6A2.23,2.23,0,0,0,63.35,9.31Z"/><path class="cls-2" d="M74.08,7.25c0,.24-.07.4-.22.46a1.2,1.2,0,0,1-.38,0h-5a2.32,2.32,0,0,0,.76,1.68,2.59,2.59,0,0,0,1.81.62,3.62,3.62,0,0,0,.82-.09,7.26,7.26,0,0,0,1.36-.59.48.48,0,0,1,.24-.08c.15,0,.22.1.22.32a2.52,2.52,0,0,1-.13.76c-.09.27-.4.51-.91.71a5.37,5.37,0,0,1-1.76.27,4,4,0,0,1-2.91-1.09,3.66,3.66,0,0,1-1.14-2.8A3.78,3.78,0,0,1,67.88,4.7a3.62,3.62,0,0,1,2.67-1.12,3.35,3.35,0,0,1,2.51,1.06A3.53,3.53,0,0,1,74.08,7.25Zm-5.53-.59h3.87a2,2,0,0,0-.56-1.28,1.71,1.71,0,0,0-1.26-.5,2,2,0,0,0-1.35.48A2.15,2.15,0,0,0,68.55,6.66Z"/><path class="cls-2" d="M79.92,4.19a.63.63,0,0,1-.08.27c-.25.52-.49.77-.72.77A.22.22,0,0,1,79,5.17.82.82,0,0,0,78.53,5a1.37,1.37,0,0,0-.45.1C77.37,5.42,77,6.29,77,7.7v2.91c0,.28-.06.46-.19.54a2.09,2.09,0,0,1-.58,0,2.57,2.57,0,0,1-.48,0,.32.32,0,0,1-.27-.34.82.82,0,0,1,0-.22V5.28a2.25,2.25,0,0,0-.09-.64,1.25,1.25,0,0,1,0-.26c0-.2.24-.39.74-.57a6.28,6.28,0,0,1,.7-.23c.16,0,.24.26.24.77v.32a2.2,2.2,0,0,1,1.9-1.09,1.43,1.43,0,0,1,.72.18A.47.47,0,0,1,79.92,4.19Z"/></svg>