<svg id="Layer_1" data-name="Layer 1" xmlns="http://www.w3.org/2000/svg" xmlns:xlink="http://www.w3.org/1999/xlink" viewBox="0 0 204 36"><defs><style>.cls-1{fill:none;}.cls-2{clip-path:url(#clip-path);}.cls-3{fill:#ff4545;}</style><clipPath id="clip-path"><rect class="cls-1" width="204" height="36"/></clipPath></defs><g class="cls-2"><path class="cls-3" d="M75.93,22a11.66,11.66,0,0,1-9.8,4.75c-6.64,0-12-4.42-12-11s5.14-11,11.78-11c3.93,0,7.28,1.08,9.6,4.32L72.2,11.19c-1.56-2.12-3.74-2.64-6.31-2.64-4.46,0-7.81,2.73-7.81,7.15s3.64,7.19,8,7.19a7.47,7.47,0,0,0,6.5-3.1Z"/><path class="cls-3" d="M87.33,4.7c6.79,0,11.35,4.46,11.35,11s-4.56,11-11.35,11S76,22.23,76,15.7,80.59,4.7,87.33,4.7Zm0,3.85C82.77,8.55,80,11.33,80,15.7s2.76,7.19,7.32,7.19,7.37-2.78,7.37-7.19S91.89,8.55,87.33,8.55Z"/><path class="cls-3" d="M119.68,26.13V8.27a.51.51,0,0,0-.39-.42.42.42,0,0,0-.48.28L114.93,18H109.3l-3.83-9.77A.46.46,0,0,0,105,7.9a.44.44,0,0,0-.39.42V26.13h-4V5.31h8l3.49,8.93,3.54-8.93h8V26.13Z"/><path class="cls-3" d="M127.44,26.13V5.31h10.87a7.43,7.43,0,0,1,5.14,2.07,6.89,6.89,0,0,1,0,10,7.26,7.26,0,0,1-5.14,2.12h-6a.89.89,0,0,0-.92.84v5.83Zm4-16.12v4.7a.9.9,0,0,0,.92.85h6a3.14,3.14,0,0,0,2.32-.94,3,3,0,0,0,1-2.26,3.26,3.26,0,0,0-3.29-3.2h-6A.9.9,0,0,0,131.42,10Z"/><path class="cls-3" d="M161.78,26.13l-1.46-4.56a.88.88,0,0,0-.87-.61h-8.34a.84.84,0,0,0-.83.61l-1.45,4.56h-4.17l6.69-20.82h7.91L166,26.13Zm-3.06-9.59-3-9.26a.45.45,0,0,0-.43-.32.52.52,0,0,0-.44.32l-3,9.26a.53.53,0,0,0,.05.38.45.45,0,0,0,.39.19h6a.38.38,0,0,0,.34-.19A.53.53,0,0,0,158.72,16.54Z"/><path class="cls-3" d="M180.79,10.72c-1.31-1.93-3.78-2.17-6-2.17-1.75,0-4.32.47-4.32,2.64s2.67,2.2,5.33,2.58c4.32.56,8.69,1,8.69,6.39,0,4.61-4.8,6.58-8.93,6.58s-6.84-.89-9.26-4.09l3.2-2.3c1.65,2.21,3.35,2.58,6.06,2.54,1.7,0,4.95-.57,4.95-2.73s-2.62-2.25-5.24-2.58c-4.41-.57-8.78-1-8.78-6.39,0-4.52,4.17-6.49,8.3-6.49,3.68,0,7.18.75,9.31,4Z"/><path class="cls-3" d="M199.76,10.72c-1.27-1.84-3.93-2.17-6-2.17-1.74,0-4.31.47-4.31,2.64s2.66,2.2,5.33,2.58c4.37.56,8.68,1,8.68,6.39,0,4.61-4.8,6.58-8.92,6.58-3.78,0-6.94-1-9.27-4.09l3.21-2.3c1.55,2,3.54,2.58,6.06,2.54,1.74,0,4.94-.57,4.94-2.73s-2.61-2.25-5.23-2.58c-4.37-.57-8.78-1-8.78-6.39,0-4.52,4.17-6.49,8.29-6.49,3.54,0,7.33.89,9.31,4Z"/><path class="cls-3" d="M19.59,14.8,30.75,4a.5.5,0,0,0,.1-.56.49.49,0,0,0-.49-.33h-9.6V0H35.84a1.28,1.28,0,0,1,1.31,1.27V15.89H34V6.58a.47.47,0,0,0-.34-.47A.53.53,0,0,0,33,6.2L21.87,17Z"/><path class="cls-3" d="M0,14.8,11.16,4a.48.48,0,0,0,.09-.56.57.57,0,0,0-.48-.33H1.12V0H16.2a1.33,1.33,0,0,1,1.36,1.27V15.89H14.31V6.58A.42.42,0,0,0,14,6.11a.54.54,0,0,0-.58.09L2.28,17,0,14.8Z"/><path class="cls-3" d="M19.59,33.79,30.75,23a.53.53,0,0,0,.1-.57c-.05-.23-.25-.32-.49-.32h-9.6V19H35.84a1.32,1.32,0,0,1,1.31,1.31V34.92H34V25.57a.57.57,0,0,0-.34-.47.46.46,0,0,0-.58.14L21.87,36Z"/><path class="cls-3" d="M0,33.79,11.16,23a.51.51,0,0,0,.09-.57.49.49,0,0,0-.48-.32H1.12V19H16.2a1.37,1.37,0,0,1,1.36,1.31V34.92H14.31V25.57A.49.49,0,0,0,14,25.1a.47.47,0,0,0-.58.14L2.28,36,0,33.79Z"/></g></svg>