<svg id="Layer_1" data-name="Layer 1" xmlns="http://www.w3.org/2000/svg" viewBox="0 0 45 37.02"><defs><style>.cls-1{fill:#ff4545;}</style></defs><path class="cls-1" d="M45,37H26.23V23.13c0-6.64,1.61-11.91,4.8-15.66A23,23,0,0,1,43.44.3L44.67,0V6.86L44,7.09c-4,1.39-6.83,3.79-8.28,7.14a10.45,10.45,0,0,0-1.06,5.48H45ZM28.23,35H43V21.71H32.85l-.18-1.8a12.47,12.47,0,0,1,1.22-6.5,14.84,14.84,0,0,1,8.78-8V2.57a20.61,20.61,0,0,0-10.12,6.2c-2.87,3.38-4.32,8.21-4.32,14.36Zm-9.46,2H0V23.13c0-6.55,1.57-11.8,4.68-15.6C7.61,4,11.83,1.56,17.22.29L18.45,0V6.86l-.68.23c-4.09,1.43-6.9,3.79-8.35,7h0a11.91,11.91,0,0,0-1,5.6H18.77ZM2,35H16.77V21.71H6.56l-.12-1.86a13.67,13.67,0,0,1,1.15-6.54v0c1.6-3.57,4.57-6.2,8.85-7.84V2.55A19.9,19.9,0,0,0,6.22,8.8C3.42,12.23,2,17.05,2,23.13Z"/></svg>