<svg id="Layer_1" data-name="Layer 1" xmlns="http://www.w3.org/2000/svg" viewBox="0 0 155 154"><defs><style>.cls-1{fill:#ff4545;}</style></defs><path class="cls-1" d="M20.12,154,0,134,98.48,36.58c2-2.63,1.2-4.36.94-4.93l-.12-.35a3.4,3.4,0,0,0-1.46-2.11,5.2,5.2,0,0,0-2.78-.69H10.28V0H143.44A11.9,11.9,0,0,1,155,11.91v132.3H126.74V59.56a5.12,5.12,0,0,0-3-4.26,4.12,4.12,0,0,0-5.07,1.19l-.16.18ZM5.68,134l14.45,14.36,95.49-94.46a8.08,8.08,0,0,1,9.9-2.19,9,9,0,0,1,5.22,7.84v80.65H151V11.91A7.84,7.84,0,0,0,143.44,4H14.28V24.5H95.06A9.05,9.05,0,0,1,100,25.82a7.24,7.24,0,0,1,3.14,4.35c1.22,2.83.71,6-1.46,8.83l-.38.44Z"/></svg>