<svg id="Layer_1" data-name="Layer 1" xmlns="http://www.w3.org/2000/svg" viewBox="0 0 1600 242.18"><defs><style>.cls-1{fill:#202020;}</style></defs><path class="cls-1" d="M233.86,190c-24.94,35.12-62.36,52.16-105,52.16C57.69,242.18,0,193.64,0,120.83,0,48.54,55.09,0,126.29,0c42.09,0,78,11.88,102.9,47.51L193.85,71.26c-16.63-23.24-40-28.92-67.56-28.92-47.82,0-83.67,30-83.67,78.49,0,49.57,39,79,86.26,79,28.59,0,53-9.81,69.64-34.08Z"/><path class="cls-1" d="M356,0c72.76,0,121.61,49.05,121.61,120.83S428.73,242.18,356,242.18c-72.24,0-121.61-49.57-121.61-121.35S283.73,0,356,0Zm0,42.34c-48.85,0-78.47,30.47-78.47,78.49,0,48.54,29.62,79,78.47,79s79-30.46,79-79C435,72.81,404.82,42.34,356,42.34Z"/><path class="cls-1" d="M702.65,235.46V39.24c0-2.06-2.08-4.13-4.16-4.65a4.63,4.63,0,0,0-5.2,3.1L651.72,145.61H591.43l-41-107.4c-1-2.07-3.12-3.62-5.2-3.1A4.91,4.91,0,0,0,541,39.76v195.7H498.41V6.71h85.75l37.42,98.11L659.51,6.71h85.75V235.46Z"/><path class="cls-1" d="M785.79,235.46V6.71H902.21a78.48,78.48,0,0,1,55.08,22.72,76.93,76.93,0,0,1,0,109.47,76.79,76.79,0,0,1-55.08,23.24H838.28c-5.19,0-9.87,4.13-9.87,9.29v64ZM828.41,58.35V110c0,5.16,4.68,9.29,9.87,9.29h63.93c9.87,0,18.7-3.61,24.94-10.33,6.76-6.19,10.39-15,10.39-24.78a35,35,0,0,0-10.39-24.79c-6.24-6.71-15.07-10.33-24.94-10.33H838.28C833.09,49.05,828.41,53.19,828.41,58.35Z"/><path class="cls-1" d="M1153.73,235.46l-15.59-50.08c-1.56-4.13-4.68-6.72-9.36-6.72H1039.4a8.91,8.91,0,0,0-8.84,6.72L1015,235.46H970.28L1042,6.71h84.71l71.72,228.75ZM1121,130.13,1088.77,28.4a5,5,0,0,0-4.68-3.61c-2.08,0-3.64,1.54-4.68,3.61l-31.7,101.73a5.46,5.46,0,0,0,.52,4.13,4.73,4.73,0,0,0,4.16,2.06h63.92a3.92,3.92,0,0,0,3.64-2.06C1121,133.22,1121,131.67,1121,130.13Z"/><path class="cls-1" d="M1357.45,66.1c-14-21.18-40.53-23.76-64.44-23.76-18.71,0-46.25,5.17-46.25,28.92,0,22.72,28.58,24.27,57.16,28.4,46.26,6.2,93,11.36,93,70.23,0,50.6-51.45,72.29-95.63,72.29-43.13,0-73.27-9.81-99.26-44.93l34.3-25.3c17.67,24.27,35.86,28.4,65,27.88,18.19,0,53-6.19,53-29.94,0-22.21-28.06-24.79-56.12-28.4-47.3-6.2-94.07-10.85-94.07-70.23C1204.14,21.69,1248.84,0,1293,0c39.5,0,76.91,8.26,99.78,43.37Z"/><path class="cls-1" d="M1560.5,66.1C1547,46,1518.41,42.34,1496.06,42.34c-18.71,0-46.25,5.17-46.25,28.92,0,22.72,28.58,24.27,57.16,28.4,46.78,6.2,93,11.36,93,70.23,0,50.6-51.45,72.29-95.62,72.29-40.54,0-74.32-11.36-99.27-44.93l34.3-25.3c16.63,22.2,37.94,28.4,65,27.88,18.7,0,53-6.19,53-29.94,0-22.21-28.06-24.79-56.12-28.4-46.78-6.2-94.07-10.85-94.07-70.23,0-49.57,44.7-71.26,88.87-71.26,37.94,0,78.47,9.81,99.78,43.37Z"/></svg>