<svg id="Layer_1" data-name="Layer 1" xmlns="http://www.w3.org/2000/svg" viewBox="0 0 45 37"><defs><style>.cls-1{fill:red;}</style></defs><path class="cls-1" d="M45,37H26.23V23.11c0-6.64,1.61-11.91,4.8-15.67A23.11,23.11,0,0,1,43.44.27L44.67,0V6.83L44,7.07c-4,1.39-6.83,3.79-8.28,7.14a10.41,10.41,0,0,0-1.06,5.47H45ZM28.23,35H43V21.69H32.85l-.18-1.81a12.44,12.44,0,0,1,1.22-6.49,14.81,14.81,0,0,1,8.78-8V2.55A20.52,20.52,0,0,0,32.55,8.74c-2.87,3.38-4.32,8.22-4.32,14.37Zm-9.46,2H0V23.11c0-6.55,1.57-11.8,4.68-15.6C7.61,4,11.83,1.53,17.22.26L18.45,0V6.84l-.68.23c-4.09,1.42-6.9,3.78-8.35,7h0a11.85,11.85,0,0,0-1,5.59H18.77ZM2,35H16.77V21.69H6.56l-.12-1.87a13.67,13.67,0,0,1,1.15-6.54h0c1.6-3.57,4.57-6.21,8.85-7.84V2.53A19.83,19.83,0,0,0,6.22,8.78C3.42,12.21,2,17,2,23.11Z"/></svg>